<?xml version="1.0" encoding="UTF-8" standalone="no"?>
<svg
   class="svg-icon-path-icon fill"
   viewBox="0 0 24 24"
   width="24"
   height="24"
   version="1.1"
   id="svg2540"
   sodipodi:docname="ticket.svg"
   inkscape:version="1.2.1 (9c6d41e410, 2022-07-14)"
   xmlns:inkscape="http://www.inkscape.org/namespaces/inkscape"
   xmlns:sodipodi="http://sodipodi.sourceforge.net/DTD/sodipodi-0.dtd"
   xmlns="http://www.w3.org/2000/svg"
   xmlns:svg="http://www.w3.org/2000/svg">
  <defs
     id="defs2544" />
  <sodipodi:namedview
     id="namedview2542"
     pagecolor="#505050"
     bordercolor="#ffffff"
     borderopacity="1"
     inkscape:showpageshadow="0"
     inkscape:pageopacity="0"
     inkscape:pagecheckerboard="1"
     inkscape:deskcolor="#505050"
     showgrid="false"
     inkscape:zoom="33.5"
     inkscape:cx="12.029851"
     inkscape:cy="12.029851"
     inkscape:window-width="1645"
     inkscape:window-height="1020"
     inkscape:window-x="-112"
     inkscape:window-y="115"
     inkscape:window-maximized="0"
     inkscape:current-layer="svg2540" />
  <path
     d="M22 10V6a2 2 0 0 0-2-2H4c-1.1 0-1.99.89-1.99 2v4c1.1 0 1.99.9 1.99 2s-.89 2-2 2v4c0 1.1.9 2 2 2h16c1.1 0 2-.9 2-2v-4c-1.1 0-2-.9-2-2s.9-2 2-2zm-9 7.5h-2v-2h2v2zm0-4.5h-2v-2h2v2zm0-4.5h-2v-2h2v2z"
     id="path2538"
     style="fill:#137040;fill-opacity:1" />
</svg>
