<?xml version="1.0" standalone="no"?><svg xmlns="http://www.w3.org/2000/svg" viewBox="0 0 1440 320"><path fill="#1c4832" fill-opacity="1" d="M0,288L26.7,245.3C53.3,203,107,117,160,101.3C213.3,85,267,139,320,149.3C373.3,160,427,128,480,96C533.3,64,587,32,640,69.3C693.3,107,747,213,800,234.7C853.3,256,907,192,960,192C1013.3,192,1067,256,1120,282.7C1173.3,309,1227,299,1280,256C1333.3,213,1387,139,1413,101.3L1440,64L1440,320L1413.3,320C1386.7,320,1333,320,1280,320C1226.7,320,1173,320,1120,320C1066.7,320,1013,320,960,320C906.7,320,853,320,800,320C746.7,320,693,320,640,320C586.7,320,533,320,480,320C426.7,320,373,320,320,320C266.7,320,213,320,160,320C106.7,320,53,320,27,320L0,320Z"></path></svg>