<?xml version="1.0" encoding="UTF-8" standalone="no"?>
<svg
   width="1440"
   height="300"
   version="1.1"
   id="svg38"
   sodipodi:docname="wave2.svg"
   inkscape:version="1.2.1 (9c6d41e410, 2022-07-14)"
   xmlns:inkscape="http://www.inkscape.org/namespaces/inkscape"
   xmlns:sodipodi="http://sodipodi.sourceforge.net/DTD/sodipodi-0.dtd"
   xmlns="http://www.w3.org/2000/svg"
   xmlns:svg="http://www.w3.org/2000/svg">
  <sodipodi:namedview
     id="namedview40"
     pagecolor="#505050"
     bordercolor="#ffffff"
     borderopacity="1"
     inkscape:showpageshadow="0"
     inkscape:pageopacity="0"
     inkscape:pagecheckerboard="1"
     inkscape:deskcolor="#505050"
     showgrid="false"
     inkscape:zoom="0.5"
     inkscape:cx="543"
     inkscape:cy="345"
     inkscape:window-width="1920"
     inkscape:window-height="991"
     inkscape:window-x="-9"
     inkscape:window-y="-9"
     inkscape:window-maximized="1"
     inkscape:current-layer="surface1" />
  <defs
     id="defs26">
    <clipPath
       id="clip1">
      <path
         id="svg_1"
         d="M -6,-9 H 1434 V 666.75 H -6 Z m 0,0" />
    </clipPath>
    <clipPath
       id="clip2">
      <path
         id="svg_2"
         d="M 0,28 H 1428 V 314.25 H 0 Z m 0,0" />
    </clipPath>
    <clipPath
       id="clip2-0">
      <path
         id="svg_2-5"
         d="M 0,28 H 1428 V 314.25 H 0 Z m 0,0" />
    </clipPath>
    <clipPath
       id="clip2-6">
      <path
         id="svg_2-2"
         d="M 0,28 H 1428 V 314.25 H 0 Z m 0,0" />
    </clipPath>
  </defs>
  <g
     id="g36">
    <title
       id="title28">Layer 1</title>
    <g
       id="surface1"
       transform="matrix(-1.0032052,0,0,-1.0119172,1442.3077,296.35428)">
      <g
         id="svg_5-0"
         clip-rule="nonzero"
         clip-path="url(#clip2-6)"
         transform="matrix(-1.0084034,0,0,-1,1440,384.91084)"
         style="display:inline;fill:#000000">
        <path
           id="svg_6-7"
           fill="#137040"
           fill-rule="nonzero"
           d="m 2.2812445,94.064419 c 0,0 17.3115675,-2.746081 32.3611595,10.860911 30.873117,28.31556 92.101566,80.51998 151.056206,80.81686 58.95077,-0.29688 117.90541,-73.66016 176.86004,-63.44922 58.95464,10.60547 117.90928,105.78125 176.86392,116.39062 58.95464,10.21094 117.90928,-63.15234 176.86392,-84.66796 58.95463,-21.11719 117.90927,10.60937 176.86391,31.72656 58.95464,21.51172 117.9093,31.42578 176.8639,37.07812 58.9547,5.25391 110.492,8.21858 169.4467,-7.6447 58.9546,-15.85938 156.5559,-67.53999 186.2578,-83.0646 v 0 176.74177 0 H 1246.8744 1070.0143 892.27668 716.46123 539.42257 363.0529 183.72161 39.794763 2.2812445 Z"
           sodipodi:nodetypes="cccccccccsccccccccccccc"
           style="display:none;fill:#000000;stroke-width:0.995407" />
        <g
           id="svg_5"
           clip-rule="nonzero"
           clip-path="url(#clip2)"
           style="display:inline"
           transform="rotate(160,714.00003,201.38169)">
          <path
             id="svg_6"
             fill="#137040"
             fill-rule="nonzero"
             d="m 2.2812445,94.064419 c 0,0 17.9961915,-3.005081 39.7457255,17.549141 35.293825,32.84721 84.717,73.83175 143.67164,74.12863 58.95077,-0.29688 117.90541,-73.66016 176.86004,-63.44922 58.95464,10.60547 117.90928,105.78125 176.86392,116.39062 58.95464,10.21094 117.90928,-63.15234 176.86392,-84.66796 58.95463,-21.11719 117.90927,10.60937 176.86391,31.72656 58.95464,21.51172 124.7294,52.07914 183.684,57.73148 58.9547,5.25391 144.1199,13.10365 199.596,-12.38114 116.2875,-53.41186 89.276,-137.108549 149.2884,-137.028111 v 51.881711 162.90665 0 H 1246.8744 1070.0143 892.27668 716.46123 539.42257 363.0529 183.72161 39.794763 2.2812445 Z"
             sodipodi:nodetypes="ccccccccccccccccccccccc"
             style="stroke-width:0.995407" />
        </g>
      </g>
      <circle
         id="path268"
         style="fill:#000000;stroke:#000000"
         cx="669.23077"
         cy="280.38461"
         r="0.58088011" />
    </g>
  </g>
</svg>
