<?xml version="1.0" encoding="UTF-8" standalone="no"?>
<svg
   viewBox="-50 -50 505.005 505.005"
   version="1.1"
   id="svg18"
   sodipodi:docname="splash.svg"
   xml:space="preserve"
   inkscape:version="1.2.1 (9c6d41e410, 2022-07-14)"
   xmlns:inkscape="http://www.inkscape.org/namespaces/inkscape"
   xmlns:sodipodi="http://sodipodi.sourceforge.net/DTD/sodipodi-0.dtd"
   xmlns="http://www.w3.org/2000/svg"
   xmlns:svg="http://www.w3.org/2000/svg"><defs
     id="defs22" /><sodipodi:namedview
     id="namedview20"
     pagecolor="#505050"
     bordercolor="#ffffff"
     borderopacity="1"
     inkscape:showpageshadow="0"
     inkscape:pageopacity="0"
     inkscape:pagecheckerboard="1"
     inkscape:deskcolor="#505050"
     showgrid="false"
     inkscape:zoom="1.1607638"
     inkscape:cx="41.782833"
     inkscape:cy="286.01857"
     inkscape:window-width="1920"
     inkscape:window-height="1009"
     inkscape:window-x="-8"
     inkscape:window-y="-8"
     inkscape:window-maximized="1"
     inkscape:current-layer="svg18" /><style
     type="text/css"
     id="style728">
	.st0{display:none;}
	.st1{display:inline;fill:#BE1622;}
	.st2{fill:#010202;}
</style><g
     id="g6299"
     transform="matrix(3.2125168,0,0,3.2125168,21.903476,79.455092)"
     style="fill:#ffffff"><g
       id="Livello_2"
       class="st0"
       style="fill:#ffffff">
	<rect
   x="-50.18"
   y="-52.27"
   class="st1"
   width="386.69"
   height="207.78999"
   id="rect730"
   style="fill:#ffffff" />
</g><g
       id="Livello_1"
       style="fill:#ffffff">
	
	
	
	
	
	
	
	
	
	
	<path
   class="st2"
   d="m 79.32,14.53 c 3.84,0 6.94,-3.22 6.94,-7.21 0,-3.97 -3.1,-7.2 -6.94,-7.2 -3.83,0 -6.93,3.23 -6.93,7.2 -0.01,3.99 3.09,7.21 6.93,7.21 z"
   id="path753"
   style="fill:#ffffff" />
	<path
   class="st2"
   d="m 108.45,36.27 c -3.83,0 -6.94,3.23 -6.94,7.21 0,3.98 3.11,7.21 6.94,7.21 3.83,0 6.94,-3.23 6.94,-7.21 0,-3.98 -3.11,-7.21 -6.94,-7.21 z"
   id="path755"
   style="fill:#ffffff" />
	<path
   class="st2"
   d="m 79.44,73.51 c -3.84,0 -6.95,3.23 -6.95,7.2 0,3.99 3.1,7.23 6.95,7.23 3.83,0 6.94,-3.23 6.94,-7.23 0,-3.97 -3.1,-7.2 -6.94,-7.2 z"
   id="path757"
   style="fill:#ffffff" />
	<path
   class="st2"
   d="m 45.57,20.14 c -6.56,0 -10.35,5.66 -11.57,9.11 h -0.17 c -1.21,-6.33 -5.44,-9.11 -10.36,-9.11 -6.74,0 -9.67,5.18 -10.79,8.06 h -0.17 v -7 H 2.93 v 45.65 h 9.58 V 47.09 c 0,-7.19 2.76,-16.97 8.29,-16.97 3.36,0 4.22,1.34 4.22,10.63 V 66.84 H 34.6 V 47.09 c 0,-7.19 2.76,-16.97 8.29,-16.97 3.36,0 4.23,1.34 4.23,10.63 V 66.84 H 56.7 V 35.2 C 56.7,24.75 51.6,20.14 45.57,20.14 Z"
   id="path759"
   style="fill:#ffffff" />
	<path
   class="st2"
   d="m 7.8,14.39 c 3.83,0 6.95,-3.22 6.95,-7.21 0,-3.98 -3.12,-7.21 -6.95,-7.21 -3.84,0 -6.94,3.23 -6.94,7.21 0,3.99 3.1,7.21 6.94,7.21 z"
   id="path761"
   style="fill:#ffffff" />
	<path
   class="st2"
   d="m 37.06,7.19 c 0,3.98 3.11,7.21 6.94,7.21 3.84,0 6.94,-3.22 6.94,-7.21 0,-3.98 -3.11,-7.21 -6.94,-7.21 -3.83,-0.01 -6.94,3.23 -6.94,7.21 z"
   id="path763"
   style="fill:#ffffff" />
	<path
   class="st2"
   d="m 7.8,87.92 c 3.83,0 6.95,-3.23 6.95,-7.21 0,-3.98 -3.12,-7.21 -6.95,-7.21 -3.84,0 -6.94,3.22 -6.94,7.21 0,3.98 3.1,7.21 6.94,7.21 z"
   id="path765"
   style="fill:#ffffff" />
	<path
   class="st2"
   d="M 79.13,19.98 C 67.3,19.98 61,28.9 61,43.86 c 0,14.96 6.31,23.88 18.13,23.88 11.82,0 18.12,-8.92 18.12,-23.88 0,-14.95 -6.3,-23.88 -18.12,-23.88 z m 0,40.29 c -6.9,0 -7.94,-7.87 -7.94,-16.41 0,-8.53 1.04,-16.39 7.94,-16.39 6.9,0 7.94,7.85 7.94,16.39 -0.01,8.54 -1.04,16.41 -7.94,16.41 z"
   id="path767"
   style="fill:#ffffff" />
	
	
	
	
	
	
	
	
	
	
	
	
	
	
	
	
	
</g><path
       style="fill:#ffffff;stroke-width:0.161127"
       d="M 3.0614211,43.987788 V 21.26882 h 4.6726954 4.6726955 v 3.46424 c 0,2.172671 0.05932,3.46424 0.159102,3.46424 0.08751,0 0.422255,-0.525678 0.743886,-1.168174 1.68313,-3.362244 4.133465,-5.554607 7.153383,-6.400273 1.502119,-0.420638 4.26403,-0.463004 5.720024,-0.08774 3.622683,0.933697 6.337965,3.772016 7.285216,7.615325 0.158275,0.642176 0.36028,1.167582 0.448901,1.16757 0.08862,-1.3e-5 0.299187,-0.344161 0.46793,-0.764774 1.193554,-2.97512 3.818161,-5.905145 6.440406,-7.189866 1.606133,-0.786895 2.928218,-1.088328 4.773402,-1.088328 2.916026,0 5.05313,0.87906 7.094072,2.918022 1.889365,1.887533 3.039189,4.419615 3.623319,7.979096 0.199211,1.213921 0.238083,4.225806 0.238626,18.489373 l 6.48e-4,17.039225 h -4.662742 -4.662743 l -0.06595,-15.83077 C 47.108513,37.487353 47.060314,34.858793 46.851839,33.83676 46.245286,30.863156 45.438542,30.095023 42.92202,30.095023 c -0.964024,0 -1.361871,0.08207 -2.064648,0.425907 -1.080719,0.528746 -2.592979,2.112238 -3.406508,3.566964 -1.323488,2.366616 -2.44826,6.538664 -2.799304,10.383276 -0.09677,1.059853 -0.169425,6.215089 -0.169739,12.044275 l -5.51e-4,10.19131 h -4.660856 -4.660856 l -0.07007,-15.750206 c -0.06144,-13.810946 -0.102864,-15.915197 -0.336409,-17.09022 -0.4387,-2.207203 -0.926171,-3.062027 -2.00909,-3.523113 -0.742368,-0.316086 -2.858268,-0.31205 -3.621641,0.0069 -2.529029,1.056696 -4.472326,4.086111 -5.681769,8.857337 -0.901585,3.556728 -0.908728,3.672869 -0.985329,16.018965 L 12.38402,66.706747 H 7.7227216 3.0614211 Z"
       id="path939" /></g></svg>
