<?xml version="1.0" encoding="UTF-8" standalone="no"?>
<svg
   width="456"
   height="456"
   viewBox="0 0 456 456"
   version="1.1"
   xml:space="preserve"
   style="fill-rule:evenodd;clip-rule:evenodd;stroke-linejoin:round;stroke-miterlimit:2;"
   id="svg2182"
   sodipodi:docname="appiconfg.svg"
   inkscape:version="1.2.1 (9c6d41e410, 2022-07-14)"
   xmlns:inkscape="http://www.inkscape.org/namespaces/inkscape"
   xmlns:sodipodi="http://sodipodi.sourceforge.net/DTD/sodipodi-0.dtd"
   xmlns="http://www.w3.org/2000/svg"
   xmlns:svg="http://www.w3.org/2000/svg"><defs
   id="defs2186" /><sodipodi:namedview
   id="namedview2184"
   pagecolor="#505050"
   bordercolor="#ffffff"
   borderopacity="1"
   inkscape:showpageshadow="0"
   inkscape:pageopacity="0"
   inkscape:pagecheckerboard="1"
   inkscape:deskcolor="#505050"
   showgrid="false"
   inkscape:zoom="0.90899123"
   inkscape:cx="77.008444"
   inkscape:cy="198.02171"
   inkscape:window-width="2560"
   inkscape:window-height="1009"
   inkscape:window-x="-8"
   inkscape:window-y="-8"
   inkscape:window-maximized="1"
   inkscape:current-layer="svg2182" />
    
    
    
    
<path
   class="st2"
   d="m 302.27638,138.72442 c 11.8356,0 21.39038,-9.92464 21.39038,-22.22258 0,-12.23629 -9.55478,-22.191755 -21.39038,-22.191755 -11.80478,0 -21.35957,9.955465 -21.35957,22.191755 -0.0308,12.29794 9.52396,22.22258 21.35957,22.22258 z"
   id="path2213"
   style="fill:#ffffff;stroke-width:3.08219" /><path
   class="st2"
   d="m 392.06052,205.73119 c -11.80478,0 -21.39038,9.95547 -21.39038,22.22258 0,12.2671 9.5856,22.22257 21.39038,22.22257 11.80478,0 21.39039,-9.95547 21.39039,-22.22257 0,-12.26711 -9.58561,-22.22258 -21.39039,-22.22258 z"
   id="path2215"
   style="fill:#ffffff;stroke-width:3.08219" /><path
   class="st2"
   d="m 302.64624,320.51187 c -11.8356,0 -21.42121,9.95547 -21.42121,22.19176 0,12.29793 9.55478,22.28421 21.42121,22.28421 11.80478,0 21.39038,-9.95546 21.39038,-22.28421 0,-12.23629 -9.55478,-22.19176 -21.39038,-22.19176 z"
   id="path2217"
   style="fill:#ffffff;stroke-width:3.08219" /><path
   class="st2"
   d="m 198.25253,156.0155 c -20.21915,0 -31.90065,17.44518 -35.66091,28.07873 h -0.52398 c -3.72944,-19.51025 -16.7671,-28.07873 -31.93147,-28.07873 -20.77394,0 -29.80476,15.96573 -33.256806,24.84243 h -0.52397 V 159.28262 H 66.828036 V 299.9845 h 29.527358 v -60.90404 c 0,-22.16093 8.506836,-52.30473 25.551336,-52.30473 10.35615,0 13.00683,4.13014 13.00683,32.76366 v 80.41429 h 29.52737 v -60.87322 c 0,-22.16093 8.50684,-52.30473 25.55134,-52.30473 10.35615,0 13.03765,4.13014 13.03765,32.76366 v 80.41429 h 29.52736 v -97.52043 c 0,-32.20887 -15.71916,-46.41775 -34.30475,-46.41775 z"
   id="path2219"
   style="fill:#ffffff;stroke-width:3.08219" /><path
   class="st2"
   d="m 81.83829,138.29292 c 11.804784,0 21.4212,-9.92465 21.4212,-22.22259 0,-12.26711 -9.616416,-22.222573 -21.4212,-22.222573 -11.835601,0 -21.390383,9.955463 -21.390383,22.222573 0,12.29794 9.554782,22.22259 21.390383,22.22259 z"
   id="path2221"
   style="fill:#ffffff;stroke-width:3.08219" /><path
   class="st2"
   d="m 172.02311,116.10115 c 0,12.26712 9.58561,22.22259 21.39039,22.22259 11.8356,0 21.39038,-9.92465 21.39038,-22.22259 0,-12.2671 -9.5856,-22.222571 -21.39038,-22.222571 -11.80478,-0.03082 -21.39039,9.955471 -21.39039,22.222571 z"
   id="path2223"
   style="fill:#ffffff;stroke-width:3.08219" /><path
   class="st2"
   d="m 81.83829,364.9262 c 11.804784,0 21.4212,-9.95547 21.4212,-22.22257 0,-12.26711 -9.616416,-22.22258 -21.4212,-22.22258 -11.835601,0 -21.390383,9.92465 -21.390383,22.22258 0,12.2671 9.554782,22.22257 21.390383,22.22257 z"
   id="path2225"
   style="fill:#ffffff;stroke-width:3.08219" /><path
   class="st2"
   d="m 301.69076,155.52235 c -36.46228,0 -55.88007,27.49312 -55.88007,73.60265 0,46.10953 19.44861,73.60265 55.88007,73.60265 36.43146,0 55.84926,-27.49312 55.84926,-73.60265 0,-46.07871 -19.4178,-73.60265 -55.84926,-73.60265 z m 0,124.18135 c -21.2671,0 -24.47257,-24.25682 -24.47257,-50.5787 0,-26.29107 3.20547,-50.51706 24.47257,-50.51706 21.2671,0 24.47257,24.19517 24.47257,50.51706 -0.0308,26.32188 -3.20547,50.5787 -24.47257,50.5787 z"
   id="path2227"
   style="fill:#ffffff;stroke-width:3.08219" /></svg>
